<svg xmlns="http://www.w3.org/2000/svg" width="960" height="640" viewBox="0 0 960 640">
<rect width="100%" height="100%" fill="#ffffff"/>
<text x="84" y="30" font-size="20" font-family="Arial, sans-serif">商品房销售额：按城市层级的均值趋势</text>
<text x="84" y="552" font-size="13" font-family="Arial, sans-serif">单位：百万人民币；数值为购买数据衍生均值，仅本地探索使用</text>
<text x="84" y="574" font-size="12" font-family="Arial, sans-serif">来源登记：SRC_CN_PURCHASED_PREF_RE_INDICATORS；数据：购买数据-地级市房地产指标2000-2024</text>
<text x="84" y="596" font-size="12" font-family="Arial, sans-serif">数据说明：data/raw/purchased/prefecture-real-estate-indicators-2000-2024/DATA_SOURCE.md</text>
<text x="84" y="618" font-size="12" font-family="Arial, sans-serif">生成脚本：src/build_prefecture_housing_tier_trends.py；城市层级：data/city-tier-seed-v1.csv</text>
<line x1="84" y1="528" x2="928" y2="528" stroke="#999" stroke-width="1"/>
<line x1="84" y1="48" x2="84" y2="528" stroke="#999" stroke-width="1"/>
<line x1="84.0" y1="48" x2="84.0" y2="528" stroke="#e5e7eb" stroke-width="1"/>
<line x1="84.0" y1="528" x2="84.0" y2="533" stroke="#777" stroke-width="1"/>
<text x="84.0" y="550" text-anchor="middle" font-size="12" font-family="Arial, sans-serif">2002</text>
<line x1="199.1" y1="48" x2="199.1" y2="528" stroke="#e5e7eb" stroke-width="1"/>
<line x1="199.1" y1="528" x2="199.1" y2="533" stroke="#777" stroke-width="1"/>
<text x="199.1" y="550" text-anchor="middle" font-size="12" font-family="Arial, sans-serif">2005</text>
<line x1="390.9" y1="48" x2="390.9" y2="528" stroke="#e5e7eb" stroke-width="1"/>
<line x1="390.9" y1="528" x2="390.9" y2="533" stroke="#777" stroke-width="1"/>
<text x="390.9" y="550" text-anchor="middle" font-size="12" font-family="Arial, sans-serif">2010</text>
<line x1="582.7" y1="48" x2="582.7" y2="528" stroke="#e5e7eb" stroke-width="1"/>
<line x1="582.7" y1="528" x2="582.7" y2="533" stroke="#777" stroke-width="1"/>
<text x="582.7" y="550" text-anchor="middle" font-size="12" font-family="Arial, sans-serif">2015</text>
<line x1="774.5" y1="48" x2="774.5" y2="528" stroke="#e5e7eb" stroke-width="1"/>
<line x1="774.5" y1="528" x2="774.5" y2="533" stroke="#777" stroke-width="1"/>
<text x="774.5" y="550" text-anchor="middle" font-size="12" font-family="Arial, sans-serif">2020</text>
<line x1="928.0" y1="48" x2="928.0" y2="528" stroke="#e5e7eb" stroke-width="1"/>
<line x1="928.0" y1="528" x2="928.0" y2="533" stroke="#777" stroke-width="1"/>
<text x="928.0" y="550" text-anchor="middle" font-size="12" font-family="Arial, sans-serif">2024</text>
<line x1="84" y1="528.0" x2="928" y2="528.0" stroke="#eef0f3" stroke-width="1"/>
<text x="76" y="532.0" text-anchor="end" font-size="12" font-family="Arial, sans-serif">612</text>
<line x1="84" y1="408.0" x2="928" y2="408.0" stroke="#eef0f3" stroke-width="1"/>
<text x="76" y="412.0" text-anchor="end" font-size="12" font-family="Arial, sans-serif">131087</text>
<line x1="84" y1="288.0" x2="928" y2="288.0" stroke="#eef0f3" stroke-width="1"/>
<text x="76" y="292.0" text-anchor="end" font-size="12" font-family="Arial, sans-serif">261563</text>
<line x1="84" y1="168.0" x2="928" y2="168.0" stroke="#eef0f3" stroke-width="1"/>
<text x="76" y="172.0" text-anchor="end" font-size="12" font-family="Arial, sans-serif">392038</text>
<line x1="84" y1="48.0" x2="928" y2="48.0" stroke="#eef0f3" stroke-width="1"/>
<text x="76" y="52.0" text-anchor="end" font-size="12" font-family="Arial, sans-serif">522514</text>
<polyline fill="none" stroke="#1f77b4" stroke-width="2.5" points="84.0,479.0 122.4,466.1 160.7,429.2 199.1,394.8 237.5,392.9 275.8,354.8 314.2,411.8 352.5,298.9 390.9,334.4 429.3,356.1 467.6,327.1 506.0,264.5 544.4,299.2 582.7,210.1 621.1,119.9 659.5,226.5 697.8,203.5 736.2,152.2 774.5,97.4 812.9,49.1 851.3,101.2 889.6,89.8 928.0,48.0"/>
<line x1="720" y1="59" x2="748" y2="59" stroke="#1f77b4" stroke-width="3"/>
<text x="756" y="64" font-size="14" font-family="Arial, sans-serif">一线</text>
<polyline fill="none" stroke="#2ca02c" stroke-width="2.5" points="84.0,520.6 122.4,516.9 160.7,514.1 199.1,501.6 237.5,494.3 275.8,474.7 314.2,488.0 352.5,451.2 390.9,440.8 429.3,435.1 467.6,425.0 506.0,401.6 544.4,403.9 582.7,377.7 621.1,301.6 659.5,282.7 697.8,262.7 736.2,251.4 774.5,232.0 812.9,212.5 851.3,304.7 889.6,321.6 928.0,353.4"/>
<line x1="720" y1="83" x2="748" y2="83" stroke="#2ca02c" stroke-width="3"/>
<text x="756" y="88" font-size="14" font-family="Arial, sans-serif">新一线与强二线</text>
<polyline fill="none" stroke="#ff7f0e" stroke-width="2.5" points="84.0,526.0 122.4,525.1 160.7,524.0 199.1,521.0 237.5,519.2 275.8,515.3 314.2,516.8 352.5,508.4 390.9,502.4 429.3,499.2 467.6,495.6 506.0,487.3 544.4,490.8 582.7,488.1 621.1,475.7 659.5,461.2 697.8,451.0 736.2,444.1 774.5,435.5 812.9,437.1 851.3,470.6 889.6,477.8 928.0,493.7"/>
<line x1="720" y1="107" x2="748" y2="107" stroke="#ff7f0e" stroke-width="3"/>
<text x="756" y="112" font-size="14" font-family="Arial, sans-serif">普通二线</text>
<polyline fill="none" stroke="#d62728" stroke-width="2.5" points="84.0,528.0 122.4,528.0 160.7,527.9 199.1,527.4 237.5,527.0 275.8,526.2 314.2,526.1 352.5,524.6 390.9,522.8 429.3,521.3 467.6,520.9 506.0,518.7 544.4,519.1 582.7,518.5 621.1,515.8 659.5,511.9 697.8,509.7 736.2,508.6 774.5,507.4 812.9,506.1 851.3,512.7 889.6,515.9 928.0,520.0"/>
<line x1="720" y1="131" x2="748" y2="131" stroke="#d62728" stroke-width="3"/>
<text x="756" y="136" font-size="14" font-family="Arial, sans-serif">三四线</text>
</svg>