<svg xmlns="http://www.w3.org/2000/svg" width="960" height="640" viewBox="0 0 960 640">
<rect width="100%" height="100%" fill="#ffffff"/>
<text x="84" y="30" font-size="20" font-family="Arial, sans-serif">房地产开发投资额：按城市层级的均值趋势</text>
<text x="84" y="552" font-size="13" font-family="Arial, sans-serif">单位：百万人民币；数值为购买数据衍生均值，仅本地探索使用</text>
<text x="84" y="574" font-size="12" font-family="Arial, sans-serif">来源登记：SRC_CN_PURCHASED_PREF_RE_INDICATORS；数据：购买数据-地级市房地产指标2000-2024</text>
<text x="84" y="596" font-size="12" font-family="Arial, sans-serif">数据说明：data/raw/purchased/prefecture-real-estate-indicators-2000-2024/DATA_SOURCE.md</text>
<text x="84" y="618" font-size="12" font-family="Arial, sans-serif">生成脚本：src/build_prefecture_housing_tier_trends.py；城市层级：data/city-tier-seed-v1.csv</text>
<line x1="84" y1="528" x2="928" y2="528" stroke="#999" stroke-width="1"/>
<line x1="84" y1="48" x2="84" y2="528" stroke="#999" stroke-width="1"/>
<line x1="84.0" y1="48" x2="84.0" y2="528" stroke="#e5e7eb" stroke-width="1"/>
<line x1="84.0" y1="528" x2="84.0" y2="533" stroke="#777" stroke-width="1"/>
<text x="84.0" y="550" text-anchor="middle" font-size="12" font-family="Arial, sans-serif">2000</text>
<line x1="259.8" y1="48" x2="259.8" y2="528" stroke="#e5e7eb" stroke-width="1"/>
<line x1="259.8" y1="528" x2="259.8" y2="533" stroke="#777" stroke-width="1"/>
<text x="259.8" y="550" text-anchor="middle" font-size="12" font-family="Arial, sans-serif">2005</text>
<line x1="435.7" y1="48" x2="435.7" y2="528" stroke="#e5e7eb" stroke-width="1"/>
<line x1="435.7" y1="528" x2="435.7" y2="533" stroke="#777" stroke-width="1"/>
<text x="435.7" y="550" text-anchor="middle" font-size="12" font-family="Arial, sans-serif">2010</text>
<line x1="611.5" y1="48" x2="611.5" y2="528" stroke="#e5e7eb" stroke-width="1"/>
<line x1="611.5" y1="528" x2="611.5" y2="533" stroke="#777" stroke-width="1"/>
<text x="611.5" y="550" text-anchor="middle" font-size="12" font-family="Arial, sans-serif">2015</text>
<line x1="787.3" y1="48" x2="787.3" y2="528" stroke="#e5e7eb" stroke-width="1"/>
<line x1="787.3" y1="528" x2="787.3" y2="533" stroke="#777" stroke-width="1"/>
<text x="787.3" y="550" text-anchor="middle" font-size="12" font-family="Arial, sans-serif">2020</text>
<line x1="928.0" y1="48" x2="928.0" y2="528" stroke="#e5e7eb" stroke-width="1"/>
<line x1="928.0" y1="528" x2="928.0" y2="533" stroke="#777" stroke-width="1"/>
<text x="928.0" y="550" text-anchor="middle" font-size="12" font-family="Arial, sans-serif">2024</text>
<line x1="84" y1="528.0" x2="928" y2="528.0" stroke="#eef0f3" stroke-width="1"/>
<text x="76" y="532.0" text-anchor="end" font-size="12" font-family="Arial, sans-serif">441</text>
<line x1="84" y1="408.0" x2="928" y2="408.0" stroke="#eef0f3" stroke-width="1"/>
<text x="76" y="412.0" text-anchor="end" font-size="12" font-family="Arial, sans-serif">109107</text>
<line x1="84" y1="288.0" x2="928" y2="288.0" stroke="#eef0f3" stroke-width="1"/>
<text x="76" y="292.0" text-anchor="end" font-size="12" font-family="Arial, sans-serif">217774</text>
<line x1="84" y1="168.0" x2="928" y2="168.0" stroke="#eef0f3" stroke-width="1"/>
<text x="76" y="172.0" text-anchor="end" font-size="12" font-family="Arial, sans-serif">326441</text>
<line x1="84" y1="48.0" x2="928" y2="48.0" stroke="#eef0f3" stroke-width="1"/>
<text x="76" y="52.0" text-anchor="end" font-size="12" font-family="Arial, sans-serif">435108</text>
<polyline fill="none" stroke="#1f77b4" stroke-width="2.5" points="84.0,481.4 119.2,470.0 154.3,458.0 189.5,447.4 224.7,430.2 259.8,426.2 295.0,417.7 330.2,405.1 365.3,404.8 400.5,388.9 435.7,353.9 470.8,334.5 506.0,317.5 541.2,286.9 576.3,252.3 611.5,220.3 646.7,195.8 681.8,185.0 717.0,162.7 752.2,135.6 787.3,100.7 822.5,91.9 857.7,86.7 892.8,49.7 928.0,48.0"/>
<line x1="720" y1="59" x2="748" y2="59" stroke="#1f77b4" stroke-width="3"/>
<text x="756" y="64" font-size="14" font-family="Arial, sans-serif">一线</text>
<polyline fill="none" stroke="#2ca02c" stroke-width="2.5" points="84.0,520.3 119.2,518.0 154.3,515.2 189.5,510.6 224.7,503.9 259.8,496.7 295.0,489.4 330.2,477.1 365.3,466.9 400.5,458.1 435.7,436.5 470.8,413.9 506.0,394.0 541.2,369.0 576.3,345.1 611.5,334.3 646.7,310.1 681.8,291.4 717.0,275.5 752.2,257.5 787.3,245.0 822.5,238.9 857.7,255.4 892.8,280.2 928.0,299.4"/>
<line x1="720" y1="83" x2="748" y2="83" stroke="#2ca02c" stroke-width="3"/>
<text x="756" y="88" font-size="14" font-family="Arial, sans-serif">新一线与强二线</text>
<polyline fill="none" stroke="#ff7f0e" stroke-width="2.5" points="84.0,525.7 119.2,525.0 154.3,524.3 189.5,522.7 224.7,520.6 259.8,519.0 295.0,516.4 330.2,512.6 365.3,508.7 400.5,505.5 435.7,497.4 470.8,486.5 506.0,480.0 541.2,471.1 576.3,467.3 611.5,470.0 646.7,466.8 681.8,465.0 717.0,457.6 752.2,448.4 787.3,444.9 822.5,440.8 857.7,453.6 892.8,468.4 928.0,462.2"/>
<line x1="720" y1="107" x2="748" y2="107" stroke="#ff7f0e" stroke-width="3"/>
<text x="756" y="112" font-size="14" font-family="Arial, sans-serif">普通二线</text>
<polyline fill="none" stroke="#d62728" stroke-width="2.5" points="84.0,528.0 119.2,527.8 154.3,527.7 189.5,527.4 224.7,527.2 259.8,526.9 295.0,526.4 330.2,525.5 365.3,524.5 400.5,523.4 435.7,521.6 470.8,519.4 506.0,517.9 541.2,515.3 576.3,514.2 611.5,514.4 646.7,513.7 681.8,512.4 717.0,510.6 752.2,508.4 787.3,506.1 822.5,505.0 857.7,508.3 892.8,513.3 928.0,516.7"/>
<line x1="720" y1="131" x2="748" y2="131" stroke="#d62728" stroke-width="3"/>
<text x="756" y="136" font-size="14" font-family="Arial, sans-serif">三四线</text>
</svg>